<svg width="1494" height="5972" viewBox="0 0 1494 5972" fill="none" xmlns="http://www.w3.org/2000/svg">
<path d="M0 750.854C0 544.434 73.5389 367.686 220.617 220.612C367.694 73.5373 544.446 0 750.87 0C954.715 0 1129.53 73.5373 1275.32 220.612C1421.11 367.686 1494 544.434 1494 750.854C1494 957.275 1421.11 1134.67 1275.32 1283.03C1129.53 1431.4 954.715 1505.58 750.87 1505.58C547.026 1505.58 370.92 1431.4 222.552 1283.03C74.1839 1134.67 0 957.275 0 750.854ZM363.824 750.854C363.824 859.225 401.238 950.824 476.067 1025.65C553.477 1103.06 645.078 1141.76 750.87 1141.76C856.663 1141.76 948.264 1103.06 1025.67 1025.65C1103.08 948.244 1141.79 856.645 1141.79 750.854C1141.79 645.064 1103.08 554.11 1025.67 477.992C948.264 401.875 856.663 363.816 750.87 363.816C642.497 363.816 550.896 401.23 476.067 476.057C401.238 550.884 363.824 642.483 363.824 750.854Z" fill="black"/>
</svg>
